HIERARCHY
ROOT joint_Root
{
	OFFSET 0.0 0.0 0.0
	CHANNELS 6 Xposition Yposition Zposition Zrotation Xrotation Yrotation 
	JOINT Hips
	{
		OFFSET 4.5925 91.4895 -427.239
		CHANNELS 6 Xposition Yposition Zposition Zrotation Xrotation Yrotation 
		JOINT Spine
		{
			OFFSET 15.7357 0.0 0.0
			CHANNELS 6 Xposition Yposition Zposition Zrotation Xrotation Yrotation 
			JOINT Chest
			{
				OFFSET 8.98455 -0.406207 0.0
				CHANNELS 6 Xposition Yposition Zposition Zrotation Xrotation Yrotation 
				JOINT Neck
				{
					OFFSET 16.3773 0.0 0.0
					CHANNELS 6 Xposition Yposition Zposition Zrotation Xrotation Yrotation 
					JOINT Head
					{
						OFFSET 6.45672 0.0 0.0
						CHANNELS 6 Xposition Yposition Zposition Zrotation Xrotation Yrotation 
						End Site
						{
							OFFSET 0.0 0.0 0.0
						}
					}
				}
				JOINT Shoulder_L
				{
					OFFSET 12.9942 -0.242716 4.98039
					CHANNELS 6 Xposition Yposition Zposition Zrotation Xrotation Yrotation 
					JOINT UpperArm_L
					{
						OFFSET 5.34809 0.0 0.0
						CHANNELS 6 Xposition Yposition Zposition Zrotation Xrotation Yrotation 
						JOINT LowerArm_L
						{
							OFFSET 24.3286 1.87007e-05 0.0
							CHANNELS 6 Xposition Yposition Zposition Zrotation Xrotation Yrotation 
							JOINT Hand_L
							{
								OFFSET 22.2916 0.0 0.0
								CHANNELS 6 Xposition Yposition Zposition Zrotation Xrotation Yrotation 
								End Site
								{
									OFFSET 0.0 0.0 0.0
								}
							}
						}
					}
				}
				JOINT Shoulder_R
				{
					OFFSET 12.9945 -0.242716 -4.98039
					CHANNELS 6 Xposition Yposition Zposition Zrotation Xrotation Yrotation 
					JOINT UpperArm_R
					{
						OFFSET -5.34813 0.0 0.0
						CHANNELS 6 Xposition Yposition Zposition Zrotation Xrotation Yrotation 
						JOINT LowerArm_R
						{
							OFFSET -24.3289 0.000322201 0.0
							CHANNELS 6 Xposition Yposition Zposition Zrotation Xrotation Yrotation 
							JOINT Hand_R
							{
								OFFSET -22.2915 -0.000108084 0.0
								CHANNELS 6 Xposition Yposition Zposition Zrotation Xrotation Yrotation 
								End Site
								{
									OFFSET 0.0 0.0 0.0
								}
							}
						}
					}
				}
			}
		}
		JOINT UpperLeg_L
		{
			OFFSET -2.19248 -6.46944 0.0
			CHANNELS 6 Xposition Yposition Zposition Zrotation Xrotation Yrotation 
			JOINT LowerLeg_L
			{
				OFFSET 39.0811 0.0 -1.23785e-05
				CHANNELS 6 Xposition Yposition Zposition Zrotation Xrotation Yrotation 
				JOINT Foot_L
				{
					OFFSET 40.9854 0.0 -1.26872e-05
					CHANNELS 6 Xposition Yposition Zposition Zrotation Xrotation Yrotation 
					JOINT Toes_L
					{
						OFFSET 11.7543 0.0 0.0
						CHANNELS 6 Xposition Yposition Zposition Zrotation Xrotation Yrotation 
						End Site
						{
							OFFSET 0.0 0.0 0.0
						}
					}
				}
			}
		}
		JOINT UpperLeg_R
		{
			OFFSET -2.19251 6.46944 0.0
			CHANNELS 6 Xposition Yposition Zposition Zrotation Xrotation Yrotation 
			JOINT LowerLeg_R
			{
				OFFSET -39.0811 -0.00228153 -0.0401928
				CHANNELS 6 Xposition Yposition Zposition Zrotation Xrotation Yrotation 
				JOINT Foot_R
				{
					OFFSET -40.9854 0.0 0.0
					CHANNELS 6 Xposition Yposition Zposition Zrotation Xrotation Yrotation 
					JOINT Toes_R
					{
						OFFSET -11.7543 0.0 0.0
						CHANNELS 6 Xposition Yposition Zposition Zrotation Xrotation Yrotation 
						End Site
						{
							OFFSET 0.0 0.0 0.0
						}
					}
				}
			}
		}
	}
}
MOTION
Frames:	4
Frame Time:	0.0333333
0.000000 0.000000 0.000000 0.000000 0.000000 -0.000000 -1.664790 90.752900 -2.213930 88.838700 -1.179690 11.407200 15.735700 0.000005 -0.000001 89.927300 76.229500 -90.003800 8.984550 -0.406207 -0.000000 19.775000 -0.042124 -0.145970 16.377300 -0.000001 -0.000001 7.982930 -3.705580 1.143470 6.456720 -0.000001 -0.000000 -10.219600 -3.659850 1.681940 12.994200 -0.242716 4.980390 -91.251200 6.519460 -79.111700 5.348090 -0.000007 -0.000001 -60.952100 29.646400 -28.248600 24.328600 0.000019 0.000005 12.335200 24.454400 -27.845100 22.291600 -0.000001 0.000005 9.708520 5.273280 0.809278 12.994500 -0.242716 -4.980390 88.981900 10.405700 -84.380500 -5.348130 -0.000001 -0.000004 -54.565300 35.672200 -26.057400 -24.328900 0.000322 -0.000009 2.945930 6.368440 -24.896600 -22.291500 -0.000108 -0.000004 19.116400 5.427250 -3.844790 -2.192480 -6.469440 -0.000000 -172.415000 -13.669000 -1.276960 39.081100 -0.000007 -0.000012 -0.184545 0.294036 32.113800 40.985400 -0.000006 -0.000013 -0.747409 5.570610 -68.771500 11.754300 -0.000000 0.000003 -0.000180 -0.001694 -16.641600 -2.192510 6.469440 -0.000001 173.672000 24.775300 -178.695000 -39.081100 -0.002282 -0.040193 -0.218270 0.371896 30.786200 -40.985400 0.000008 0.000006 4.250150 15.108300 -69.914100 -11.754300 -0.000006 -0.000006 -0.002152 -0.030607 -17.817700
0.000000 0.000000 0.000000 0.000000 0.000000 -0.000000 -1.667320 90.756000 -2.198290 88.844100 -1.145330 11.455400 15.735700 0.000005 -0.000001 89.970100 76.208600 -90.045000 8.984550 -0.406207 -0.000000 19.816800 -0.021929 -0.146483 16.377300 -0.000001 -0.000001 7.967940 -3.752400 1.174710 6.456720 -0.000001 -0.000000 -10.213100 -3.687410 1.676560 12.994200 -0.242716 4.980390 -91.261700 6.551840 -79.075000 5.348090 -0.000007 -0.000001 -60.914400 29.339800 -28.250000 24.328600 0.000019 0.000005 12.507900 23.669300 -28.924300 22.291600 -0.000001 0.000005 9.757840 5.277680 0.689551 12.994500 -0.242716 -4.980390 88.972900 10.412500 -84.334900 -5.348130 -0.000001 -0.000004 -54.507200 35.638200 -26.082400 -24.328900 0.000322 -0.000009 2.975110 6.431710 -24.897200 -22.291500 -0.000108 -0.000004 19.082700 5.427080 -3.839030 -2.192480 -6.469440 -0.000000 -172.392000 -13.679200 -1.192100 39.081100 -0.000007 -0.000012 -0.189122 0.301697 32.082400 40.985400 -0.000006 -0.000013 -0.748908 5.597440 -68.773000 11.754300 -0.000000 0.000003 -0.000176 -0.001659 -16.640300 -2.192510 6.469440 -0.000001 173.629000 24.849400 -178.608000 -39.081100 -0.002282 -0.040193 -0.218565 0.372703 30.765000 -40.985400 0.000008 0.000006 4.256400 15.107500 -69.918600 -11.754300 -0.000006 -0.000006 -0.002274 -0.032090 -17.878000
0.000000 0.000000 0.000000 0.000000 0.000000 -0.000000 -1.673310 90.753400 -2.208330 88.849500 -1.120130 11.455700 15.735700 0.000005 -0.000001 89.963300 76.199300 -90.035700 8.984550 -0.406207 -0.000000 19.835400 -0.024893 -0.140963 16.377300 -0.000001 -0.000001 7.938310 -3.750170 1.160320 6.456720 -0.000001 -0.000000 -10.187700 -3.686520 1.688620 12.994200 -0.242716 4.980390 -91.282100 6.611860 -79.000200 5.348090 -0.000007 -0.000001 -60.793900 28.887100 -28.330500 24.328600 0.000019 0.000005 13.055400 23.258700 -30.422600 22.291600 -0.000001 0.000005 9.667190 5.279020 0.652939 12.994500 -0.242716 -4.980390 88.974400 10.396300 -84.334600 -5.348130 -0.000001 -0.000004 -54.452000 35.600000 -26.116700 -24.328900 0.000322 -0.000009 2.959300 6.400580 -24.886200 -22.291500 -0.000108 -0.000004 19.068000 5.427870 -3.866130 -2.192480 -6.469440 -0.000000 -172.414000 -13.614600 -1.219150 39.081100 -0.000007 -0.000012 -0.188498 0.300532 32.096900 40.985400 -0.000006 -0.000013 -0.752818 5.585120 -68.767800 11.754300 -0.000000 0.000003 -0.000194 -0.001803 -16.645600 -2.192510 6.469440 -0.000001 173.624000 24.850600 -178.622000 -39.081100 -0.002282 -0.040193 -0.216165 0.368388 30.784400 -40.985400 0.000008 0.000006 4.255440 15.102400 -69.923700 -11.754300 -0.000006 -0.000006 -0.002211 -0.031323 -17.846800
0.000000 0.000000 0.000000 0.000000 0.000000 -0.000000 -1.684190 90.750300 -2.216290 88.840500 -1.067570 11.441600 15.735700 0.000005 -0.000001 90.004600 76.190600 -90.063100 8.984550 -0.406207 -0.000000 19.852700 -0.003990 -0.116686 16.377300 -0.000001 -0.000001 7.916010 -3.777600 1.220700 6.456720 -0.000001 -0.000000 -10.152400 -3.710350 1.607060 12.994200 -0.242716 4.980390 -91.312400 6.725550 -78.931500 5.348090 -0.000007 -0.000001 -60.390800 28.471500 -28.643000 24.328600 0.000019 0.000005 13.536600 22.579000 -32.089100 22.291600 -0.000001 0.000005 9.759380 5.280370 0.616136 12.994500 -0.242716 -4.980390 88.973600 10.382000 -84.322500 -5.348130 -0.000001 -0.000004 -54.388200 35.540900 -26.126300 -24.328900 0.000322 -0.000009 2.981160 6.451590 -24.874400 -22.291500 -0.000108 -0.000004 19.099400 5.429390 -3.918180 -2.192480 -6.469440 -0.000000 -172.408000 -13.615000 -1.263720 39.081100 -0.000007 -0.000012 -0.184827 0.294375 32.123500 40.985400 -0.000006 -0.000013 -0.743766 5.620040 -68.766700 11.754300 -0.000000 0.000003 -0.000182 -0.001714 -16.642400 -2.192510 6.469440 -0.000001 173.647000 24.888000 -178.640000 -39.081100 -0.002282 -0.040193 -0.218213 0.371647 30.796600 -40.985400 0.000008 0.000006 4.259720 15.058900 -69.932300 -11.754300 -0.000006 -0.000006 -0.002349 -0.032997 -17.914900
